#!OML:ASF H:\Punching\Project 1\Capture day 1\Session 1\female.ASF
:FULLY-SPECIFIED
:DEGREES
2351
root 0.702449 14.6789 0.625736 19.7427 -30.227 -4.68481
lowerback -4.35436 2.03728 3.26135
upperback -7.00135 2.58075 -1.39917
thorax -4.60836 1.0686 -3.2632
lowerneck -10.7086 7.25973 15.2132
upperneck 34.1676 9.0488 -6.96986
head 14.6948 4.90416 -4.07893
rclavicle -3.82909e-014 0
rhumerus 0.510283 23.0126 -72.8721
rradius 128.582
rwrist -14.4778
rhand -30.0088 8.41917
rfingers 7.12502
rthumb -3.32591 -21.5346
lclavicle -3.82909e-014 0
lhumerus 8.87595 -12.7483 58.8858
lradius 134.316
lwrist 0.378635
lhand -23.6163 5.50785
lfingers 7.12502
lthumb 2.84791 35.4686
rfemur 0.260145 3.68569 14.1884
rtibia 31.6777
rfoot -19.6729 -22.3288
rtoes -16.0374
lfemur -59.2091 17.3506 -29.4538
ltibia 51.4471
lfoot -20.0022 27.8643
ltoes 32.4277
2352
root 0.692841 14.6758 0.515011 20.2324 -31.2003 -5.11483
lowerback -4.35797 2.05746 3.46078
upperback -7.0031 2.60324 -1.40213
thorax -4.59927 1.06934 -3.37764
lowerneck -10.4446 7.48385 15.4706
upperneck 33.7613 9.47524 -7.36654
head 14.5535 5.06718 -4.21023
rclavicle 3.65018e-014 2.38542e-014
rhumerus 0.553091 23.3937 -73.0764
rradius 128.514
rwrist -14.2147
rhand -29.9551 8.45585
rfingers 7.12502
rthumb -3.27409 -21.4988
lclavicle 3.65018e-014 2.38542e-014
lhumerus 8.78903 -12.3892 58.914
lradius 134.466
lwrist 0.262116
lhand -23.7436 5.9126
lfingers 7.12502
lthumb 2.72502 35.8749
rfemur 0.0190385 4.69404 14.5475
rtibia 30.4375
rfoot -20.3423 -22.8505
rtoes -17.4412
lfemur -59.8199 17.7825 -28.8609
ltibia 51.419
lfoot -19.9475 28.3888
ltoes 32.911
2353
root 0.683964 14.6735 0.400905 20.6999 -32.1478 -5.51759
lowerback -4.33802 2.0651 3.62508
upperback -6.99418 2.61037 -1.40408
thorax -4.59467 1.06428 -3.47216
lowerneck -10.1977 7.7107 15.7049
upperneck 33.3531 9.91125 -7.77515
head 14.4208 5.23114 -4.33967
rclavicle -8.36635e-014 -5.24792e-014
rhumerus 0.634911 23.767 -73.2365
rradius 128.416
rwrist -13.8948
rhand -29.8983 8.40812
rfingers 7.12502
rthumb -3.21923 -21.5473
lclavicle -8.36635e-014 -5.24792e-014
lhumerus 8.6997 -12.0238 58.9578
lradius 134.616
lwrist 0.158919
lhand -23.8694 6.29929
lfingers 7.12502
lthumb 2.60345 36.2631
rfemur -0.300193 5.34656 14.8514
rtibia 29.5269
rfoot -20.9312 -23.3991
rtoes -18.8395
lfemur -60.3667 18.1932 -28.2701
ltibia 51.3239
lfoot -19.8563 28.9174
ltoes 33.3879
2354
root 0.675811 14.6723 0.283716 21.1324 -33.0706 -5.87938
lowerback -4.29263 2.06184 3.75061
upperback -6.97983 2.60429 -1.41241
thorax -4.60091 1.05422 -3.55262
lowerneck -9.94745 7.93356 15.9202
upperneck 32.9406 10.3475 -8.19349
head 14.2898 5.39338 -4.46919
rclavicle -1.13034e-013 7.95139e-015
rhumerus 0.731989 24.131 -73.3603
rradius 128.305
rwrist -13.5606
rhand -29.8536 8.31517
rfingers 7.12502
rthumb -3.17603 -21.6409
lclavicle -1.13034e-013 7.95139e-015
lhumerus 8.59278 -11.6708 59.0192
lradius 134.777
lwrist 0.0469676
lhand -23.9982 6.65747
lfingers 7.12502
lthumb 2.47914 36.6228
rfemur -0.668221 5.63862 15.0964
rtibia 28.8961
rfoot -21.5016 -23.8989
rtoes -20.1853
lfemur -60.8349 18.5727 -27.6843
ltibia 51.1536
lfoot -19.7299 29.4553
ltoes 33.8555
2355
root 0.668431 14.6725 0.163602 21.5225 -33.9695 -6.1928
lowerback -4.22081 2.04028 3.83435
upperback -6.95779 2.57511 -1.42948
thorax -4.61709 1.03435 -3.61982
lowerneck -9.68929 8.1598 16.1238
upperneck 32.5149 10.7914 -8.61721
head 14.1571 5.55863 -4.59665
rclavicle 3.61291e-014 -1.03368e-014
rhumerus 0.85549 24.5005 -73.4592
rradius 128.187
rwrist -13.2522
rhand -29.8337 8.20173
rfingers 7.12502
rthumb -3.15685 -21.7546
lclavicle 3.61291e-014 -1.03368e-014
lhumerus 8.47577 -11.3228 59.0775
lradius 134.96
lwrist -0.0658931
lhand -24.1225 7.06431
lfingers 7.12502
lthumb 2.35905 37.031
rfemur -1.06184 5.68195 15.2969
rtibia 28.4677
rfoot -22.1296 -24.307
rtoes -21.4237
lfemur -61.2176 18.9102 -27.1024
ltibia 50.9059
lfoot -19.5602 30.0163
ltoes 34.2852
2356
root 0.661563 14.6734 0.0409246 21.8588 -34.8463 -6.45237
lowerback -4.11869 2.00292 3.87711
upperback -6.92955 2.52618 -1.45902
thorax -4.64659 1.00607 -3.67821
lowerneck -9.41959 8.38689 16.3163
upperneck 32.0768 11.2383 -9.0431
head 14.0213 5.72561 -4.72175
rclavicle 4.52235e-015 2.38542e-015
rhumerus 0.992462 24.8708 -73.5385
rradius 128.077
rwrist -13.0112
rhand -29.8376 8.08293
rfingers 7.12502
rthumb -3.16061 -21.8734
lclavicle 4.52235e-015 2.38542e-015
lhumerus 8.33962 -10.9502 59.1405
lradius 135.133
lwrist -0.170546
lhand -24.2469 7.29637
lfingers 7.12502
lthumb 2.23893 37.2644
rfemur -1.4645 5.64907 15.4699
rtibia 28.1567
rfoot -22.8423 -24.6328
rtoes -22.4198
lfemur -61.5061 19.2052 -26.5222
ltibia 50.5884
lfoot -19.371 30.5838
ltoes 34.7038
